<svg xmlns="http://www.w3.org/2000/svg" width="208" height="211" viewBox="0 0 208 211" version="1.1"><path d="M 115.995 42.250 C 110.407 45.602, 105.567 51.455, 104.440 56.224 L 103.796 58.948 108.648 57.310 C 117.474 54.330, 123.787 49.180, 127.562 41.880 L 129.051 39 125.231 39 C 122.700 39, 119.585 40.096, 115.995 42.250 M 126.686 81.017 C 117.253 83.848, 119.041 91.580, 129.816 94.548 C 141.660 97.811, 147.044 101.661, 151.690 110.190 C 154.437 115.234, 154.230 130.105, 151.337 135.525 C 148.971 139.959, 141.499 147.338, 135.902 150.769 C 130.233 154.245, 119.869 157.802, 113.223 158.554 L 107.135 159.243 106.501 163.372 C 106.153 165.642, 105.623 168.963, 105.323 170.750 L 104.777 174 109.339 174 C 111.849 174, 116.215 173.504, 119.043 172.897 L 124.184 171.795 123.447 168.147 C 122.164 161.805, 122.338 160.500, 124.467 160.500 C 125.954 160.500, 126.756 161.642, 127.758 165.191 L 129.083 169.882 132.791 168.554 C 134.831 167.824, 137.739 166.653, 139.253 165.951 L 142.006 164.676 140.003 161.281 C 137.453 156.959, 137.463 155, 140.034 155 C 141.298 155, 142.849 156.324, 144.133 158.500 C 145.268 160.425, 146.430 162, 146.715 162 C 147.631 162, 156.471 155.243, 158.518 152.978 L 160.500 150.785 157.157 147.992 C 155.155 146.320, 153.952 144.491, 154.157 143.433 C 154.691 140.682, 156.478 140.690, 159.768 143.459 C 161.430 144.856, 163.085 146, 163.447 146 C 164.140 146, 169.379 135.034, 170.450 131.344 C 170.997 129.457, 170.579 129.105, 167.095 128.516 C 159.340 127.206, 159.031 122.405, 166.757 123.276 L 171.253 123.783 170.775 117.104 C 170.512 113.430, 169.764 109.428, 169.113 108.210 L 167.928 105.996 163.888 108.057 C 160.810 109.627, 159.523 109.849, 158.483 108.986 C 156.555 107.386, 157.567 105.548, 161.559 103.398 C 163.451 102.379, 165 101.021, 165 100.381 C 165 99.077, 156.223 89, 155.087 89 C 154.687 89, 152.519 90.576, 150.268 92.502 C 147.715 94.688, 145.579 95.776, 144.588 95.395 C 142.080 94.433, 142.710 92.462, 146.623 89.026 C 148.648 87.248, 149.861 85.473, 149.373 85.002 C 147.773 83.455, 136.109 79.999, 132.782 80.086 C 130.977 80.133, 128.234 80.552, 126.686 81.017 M 59 86.444 C 52.032 90.083, 45.662 96.280, 42.186 102.801 L 39.019 108.745 44.259 109.407 C 47.142 109.772, 50.962 110.329, 52.750 110.646 C 55.343 111.106, 56 110.887, 56 109.563 C 56 108.650, 59.134 104.750, 62.965 100.897 C 69.862 93.959, 72.135 89.401, 70.641 85.508 C 69.783 83.270, 64.220 83.717, 59 86.444 M 37.480 118.092 C 36.749 121.419, 37.493 128.546, 39.105 133.670 L 40.102 136.841 46.801 133.883 L 53.500 130.925 53.327 123.712 L 53.153 116.500 48.327 115.838 C 38.933 114.548, 38.226 114.695, 37.480 118.092 M 48.250 139.501 C 45.362 140.813, 43 142.262, 43 142.721 C 43 145.067, 54.488 158.054, 56.462 157.940 C 57.033 157.907, 59.305 155.407, 61.511 152.383 L 65.523 146.886 60.758 141.943 C 58.138 139.224, 55.433 137.026, 54.747 137.058 C 54.061 137.089, 51.138 138.189, 48.250 139.501 M 65.684 155.971 L 61.046 161.943 65.273 164.419 C 71.512 168.074, 77.162 170.249, 78.001 169.318 C 78.772 168.462, 83.165 155.719, 82.743 155.563 C 82.609 155.513, 79.903 154.241, 76.728 152.736 C 73.553 151.231, 70.813 150, 70.638 150 C 70.464 150, 68.234 152.687, 65.684 155.971 M 85.745 164.443 C 83.356 171.222, 83.270 171.951, 84.808 172.435 C 87.952 173.425, 99.077 174.684, 99.426 174.090 C 99.617 173.765, 100.089 170.295, 100.475 166.377 L 101.178 159.254 96.339 158.570 C 93.677 158.194, 90.797 157.683, 89.937 157.435 C 88.763 157.096, 87.722 158.835, 85.745 164.443" stroke="none" fill="#9c5438" fill-rule="evenodd"/><path d="M 86.979 1.444 C 45.820 8.785, 13.655 38.850, 3.479 79.493 C 1.152 88.786, 0.745 92.496, 0.739 104.454 C 0.731 122.639, 3.168 133.560, 10.527 148.308 C 31.595 190.532, 75.758 213.902, 120.500 206.504 C 140.146 203.255, 154.020 196.794, 170.099 183.407 C 191.404 165.667, 206.755 135.604, 207.070 111 C 207.121 107.003, 207.376 106.047, 208 107.500 C 208.628 108.962, 208.852 108.154, 208.830 104.500 C 208.807 100.556, 208.632 100.028, 208 102 C 207.397 103.882, 207.175 103.017, 207.100 98.500 C 206.709 75.062, 195.435 49.494, 177.516 31.410 C 163.261 17.024, 147.289 8.108, 126.500 2.931 C 116.140 0.351, 97.118 -0.365, 86.979 1.444 M 91 10.666 C 76.908 12.882, 60.744 19.147, 50.839 26.231 C 47.353 28.724, 41.180 34.080, 37.123 38.132 C 24.341 50.899, 18.119 61.888, 13.277 80.251 C 10.940 89.110, 10.572 92.467, 10.560 105 C 10.544 121.576, 12.215 129.262, 18.968 143.673 C 29.894 166.989, 51.617 186.409, 75 193.764 C 89.175 198.222, 101.328 199.594, 113.517 198.112 C 125.953 196.600, 133.104 194.613, 142.904 189.946 C 156.950 183.258, 166.938 175.093, 178.175 161.114 C 200.605 133.211, 204.092 92.971, 186.939 59.999 C 170.948 29.262, 137.719 9.612, 102.619 10.136 C 97.604 10.211, 92.375 10.449, 91 10.666 M 120.383 28.888 C 110.646 31.403, 100.782 39.540, 96.502 48.587 C 95.126 51.496, 94 54.504, 94 55.271 C 94 58.189, 92.740 57.606, 87.834 52.418 C 81.012 45.204, 74.427 42, 66.426 42 C 59.304 42, 57.378 43.386, 58.468 47.727 C 59.365 51.304, 60.545 51.966, 66.054 51.985 C 74.469 52.013, 84.180 60.304, 87.371 70.186 C 88.603 74, 89.007 79.286, 89.028 91.865 C 89.054 107.140, 89.241 108.861, 91.318 112.922 C 96.627 123.302, 111 128.180, 111 119.602 C 111 118.045, 109.823 116.902, 106.750 115.474 C 104.413 114.388, 101.487 111.971, 100.250 110.102 C 98.128 106.898, 98 105.690, 98 88.909 C 98 71.653, 98.067 71.066, 100.223 69.557 C 101.445 68.701, 104.039 68, 105.987 68 C 113.603 68, 125.006 62.174, 131.203 55.116 C 134.892 50.914, 139.699 40.737, 140.572 35.278 C 141.135 31.755, 140.943 31.295, 138.432 30.151 C 134.945 28.562, 124.478 27.830, 120.383 28.888 M 115.995 42.250 C 110.407 45.602, 105.567 51.455, 104.440 56.224 L 103.796 58.948 108.648 57.310 C 117.474 54.330, 123.787 49.180, 127.562 41.880 L 129.051 39 125.231 39 C 122.700 39, 119.585 40.096, 115.995 42.250 M 125.236 71.918 C 114.483 74.669, 108.290 84.859, 112.464 92.931 C 115.353 98.516, 119.669 101.129, 130.705 103.970 C 136.086 105.356, 140.791 109.330, 143.120 114.459 C 148.931 127.251, 140.083 141.067, 122.181 147.155 C 116.865 148.963, 113.253 149.434, 104.500 149.459 C 92.206 149.494, 86.807 148.140, 76.369 142.405 C 65.742 136.565, 61.028 128.798, 62.549 119.637 C 63.535 113.704, 65.386 110.613, 70.527 106.315 C 80.773 97.751, 83.114 83.338, 75.208 77.500 C 70.869 74.295, 60.970 74.739, 54.237 78.439 C 36.654 88.103, 26.882 105.648, 28.302 125 C 30.262 151.719, 52.019 173.905, 83.811 181.605 C 94.099 184.096, 115.194 183.851, 126 181.115 C 152.400 174.430, 172.024 157.550, 178.715 135.770 C 181.128 127.913, 180.847 115.057, 178.080 106.741 C 173.501 92.980, 160.309 78.878, 147.549 74.104 C 141.248 71.747, 130.155 70.660, 125.236 71.918 M 126.686 81.017 C 117.253 83.848, 119.041 91.580, 129.816 94.548 C 141.660 97.811, 147.044 101.661, 151.690 110.190 C 154.437 115.234, 154.230 130.105, 151.337 135.525 C 148.971 139.959, 141.499 147.338, 135.902 150.769 C 130.233 154.245, 119.869 157.802, 113.223 158.554 L 107.135 159.243 106.501 163.372 C 106.153 165.642, 105.623 168.963, 105.323 170.750 L 104.777 174 109.339 174 C 111.849 174, 116.215 173.504, 119.043 172.897 L 124.184 171.795 123.447 168.147 C 122.164 161.805, 122.338 160.500, 124.467 160.500 C 125.954 160.500, 126.756 161.642, 127.758 165.191 L 129.083 169.882 132.791 168.554 C 134.831 167.824, 137.739 166.653, 139.253 165.951 L 142.006 164.676 140.003 161.281 C 137.453 156.959, 137.463 155, 140.034 155 C 141.298 155, 142.849 156.324, 144.133 158.500 C 145.268 160.425, 146.430 162, 146.715 162 C 147.631 162, 156.471 155.243, 158.518 152.978 L 160.500 150.785 157.157 147.992 C 155.155 146.320, 153.952 144.491, 154.157 143.433 C 154.691 140.682, 156.478 140.690, 159.768 143.459 C 161.430 144.856, 163.085 146, 163.447 146 C 164.140 146, 169.379 135.034, 170.450 131.344 C 170.997 129.457, 170.579 129.105, 167.095 128.516 C 159.340 127.206, 159.031 122.405, 166.757 123.276 L 171.253 123.783 170.775 117.104 C 170.512 113.430, 169.764 109.428, 169.113 108.210 L 167.928 105.996 163.888 108.057 C 160.810 109.627, 159.523 109.849, 158.483 108.986 C 156.555 107.386, 157.567 105.548, 161.559 103.398 C 163.451 102.379, 165 101.021, 165 100.381 C 165 99.077, 156.223 89, 155.087 89 C 154.687 89, 152.519 90.576, 150.268 92.502 C 147.715 94.688, 145.579 95.776, 144.588 95.395 C 142.080 94.433, 142.710 92.462, 146.623 89.026 C 148.648 87.248, 149.861 85.473, 149.373 85.002 C 147.773 83.455, 136.109 79.999, 132.782 80.086 C 130.977 80.133, 128.234 80.552, 126.686 81.017 M 59 86.444 C 52.032 90.083, 45.662 96.280, 42.186 102.801 L 39.019 108.745 44.259 109.407 C 47.142 109.772, 50.962 110.329, 52.750 110.646 C 55.343 111.106, 56 110.887, 56 109.563 C 56 108.650, 59.134 104.750, 62.965 100.897 C 69.862 93.959, 72.135 89.401, 70.641 85.508 C 69.783 83.270, 64.220 83.717, 59 86.444 M 37.480 118.092 C 36.749 121.419, 37.493 128.546, 39.105 133.670 L 40.102 136.841 46.801 133.883 L 53.500 130.925 53.327 123.712 L 53.153 116.500 48.327 115.838 C 38.933 114.548, 38.226 114.695, 37.480 118.092 M 48.250 139.501 C 45.362 140.813, 43 142.262, 43 142.721 C 43 145.067, 54.488 158.054, 56.462 157.940 C 57.033 157.907, 59.305 155.407, 61.511 152.383 L 65.523 146.886 60.758 141.943 C 58.138 139.224, 55.433 137.026, 54.747 137.058 C 54.061 137.089, 51.138 138.189, 48.250 139.501 M 65.684 155.971 L 61.046 161.943 65.273 164.419 C 71.512 168.074, 77.162 170.249, 78.001 169.318 C 78.772 168.462, 83.165 155.719, 82.743 155.563 C 82.609 155.513, 79.903 154.241, 76.728 152.736 C 73.553 151.231, 70.813 150, 70.638 150 C 70.464 150, 68.234 152.687, 65.684 155.971 M 85.745 164.443 C 83.356 171.222, 83.270 171.951, 84.808 172.435 C 87.952 173.425, 99.077 174.684, 99.426 174.090 C 99.617 173.765, 100.089 170.295, 100.475 166.377 L 101.178 159.254 96.339 158.570 C 93.677 158.194, 90.797 157.683, 89.937 157.435 C 88.763 157.096, 87.722 158.835, 85.745 164.443" stroke="none" fill="#223c23" fill-rule="evenodd"/></svg>